<svg xmlns="http://www.w3.org/2000/svg" viewBox="0 0 320 220" role="img" aria-label="Lagoon location">
  <defs>
    <linearGradient id="lagSky" x1="0" y1="0" x2="0" y2="1">
      <stop offset="0%" stop-color="#d9f7f9" />
      <stop offset="100%" stop-color="#f2fffb" />
    </linearGradient>
    <linearGradient id="lagWater" x1="0" y1="0" x2="1" y2="1">
      <stop offset="0%" stop-color="#5ec5c7" />
      <stop offset="100%" stop-color="#2e9aa6" />
    </linearGradient>
  </defs>
  <rect width="320" height="220" rx="20" fill="url(#lagSky)" />
  <ellipse cx="160" cy="132" rx="124" ry="58" fill="url(#lagWater)" />
  <g fill="#7fa38f">
    <path d="M32 136h34l8 14H26z" />
    <path d="M286 136h-34l-8 14h48z" />
    <path d="M84 86h28l6 16H78z" />
    <path d="M236 86h-28l-6 16h40z" />
  </g>
  <g fill="#68a787">
    <rect x="52" y="72" width="12" height="24" rx="2" />
    <rect x="262" y="70" width="12" height="26" rx="2" />
    <ellipse cx="58" cy="66" rx="14" ry="7" />
    <ellipse cx="268" cy="64" rx="14" ry="7" />
  </g>
  <ellipse cx="160" cy="130" rx="48" ry="28" fill="#c4b396" />
  <path d="M122 128c14-16 58-16 76 0-6 22-18 32-38 32-18 0-30-10-38-32z" fill="#d7c8a8" />
  <path d="M126 130c8 8 18 12 34 12 17 0 28-4 39-12" fill="none" stroke="#9f8c6e" stroke-width="3" stroke-linecap="round" />
  <path d="M110 176c18 8 40 8 60 0m20 0c16 8 34 8 50 0" fill="none" stroke="#9be5ea" stroke-width="4" stroke-linecap="round" opacity="0.5" />
</svg>
